<?xml version="1.0" standalone="no"?>
<!DOCTYPE svg PUBLIC "-//W3C//DTD SVG 20010904//EN"
 "http://www.w3.org/TR/2001/REC-SVG-20010904/DTD/svg10.dtd">
<svg version="1.0" xmlns="http://www.w3.org/2000/svg"
 width="210.000000pt" height="297.000000pt" viewBox="0 0 210.000000 297.000000"
 preserveAspectRatio="xMidYMid meet">

<g transform="translate(0.000000,297.000000) scale(0.100000,-0.100000)"
fill="#858585" stroke="none">
<path d="M891 2915 c-55 -52 -99 -129 -131 -230 -18 -55 -23 -103 -27 -227 -7
-194 8 -320 52 -449 18 -54 36 -117 40 -141 11 -62 8 -205 -5 -279 -19 -109
-70 -273 -91 -294 -18 -18 -21 -19 -47 -5 -28 16 -29 20 -50 162 -25 171 -155
331 -339 419 -56 26 -69 29 -90 20 -24 -11 -25 -14 -17 -59 25 -136 -4 -388
-76 -649 -51 -187 -74 -367 -68 -543 4 -118 9 -146 35 -223 54 -155 145 -276
276 -368 l70 -49 669 0 c662 0 669 0 711 21 78 39 207 128 252 174 l45 44 0
566 c0 642 8 577 -89 710 -29 39 -65 97 -81 130 -37 77 -83 240 -105 375 -26
153 -57 172 -125 78 -48 -66 -71 -156 -72 -278 0 -106 5 -137 58 -318 29 -101
40 -246 25 -325 -13 -74 -55 -168 -88 -198 -22 -22 -26 -22 -50 -9 -70 40 -88
150 -79 475 6 220 5 246 -13 317 -43 167 -117 312 -243 479 -81 106 -121 175
-148 254 -39 112 -80 318 -80 401 0 78 -47 86 -119 19z m-488 -1705 c19 -27
-5 -229 -30 -247 -39 -29 -77 -2 -75 53 3 79 21 185 32 199 18 21 56 18 73 -5z
m-51 -387 c15 -14 18 -33 18 -135 0 -135 -7 -158 -50 -158 -43 0 -50 23 -50
154 0 103 2 118 20 136 24 24 38 25 62 3z"/>
<path d="M1812 2523 c-44 -65 -65 -166 -40 -191 28 -28 78 -1 78 42 0 12 11
45 25 72 28 55 31 74 13 92 -21 21 -56 14 -76 -15z"/>
<path d="M9 2249 c-9 -18 -7 -27 11 -52 13 -16 33 -55 44 -86 17 -42 28 -57
45 -59 29 -4 51 14 51 43 0 28 -33 107 -61 146 -25 36 -72 40 -90 8z"/>
</g>
</svg>
